<svg xmlns="http://www.w3.org/2000/svg" xmlns:xlink="http://www.w3.org/1999/xlink" width="500" zoomAndPan="magnify" viewBox="0 0 375 374.999991" height="500" preserveAspectRatio="xMidYMid meet" version="1.0"><defs><g/><clipPath id="6e2c4a6a1d"><path d="M 49.597656 132.3125 L 144.097656 132.3125 L 144.097656 242.5625 L 49.597656 242.5625 Z M 49.597656 132.3125 " clip-rule="nonzero"/></clipPath></defs><g clip-path="url(#6e2c4a6a1d)"><path fill="#0f223c" d="M 142.859375 239.9375 C 134.28125 225.015625 125.710938 210.089844 117.09375 195.191406 C 116.433594 194.046875 116.480469 193.164062 117.128906 192.039062 C 122.464844 182.828125 127.710938 173.566406 133.089844 164.378906 C 134.015625 162.800781 134.039062 161.648438 133.109375 160.066406 C 128.023438 151.371094 123.027344 142.621094 118.078125 133.847656 C 117.351562 132.550781 116.425781 132.355469 115.121094 132.359375 C 93.28125 132.371094 71.441406 132.371094 49.597656 132.371094 L 49.597656 148.183594 C 68.570312 148.15625 87.546875 148.167969 106.519531 148.148438 C 107.574219 148.148438 108.238281 148.375 108.796875 149.390625 C 110.949219 153.300781 113.269531 157.113281 115.410156 161.03125 C 115.746094 161.648438 115.730469 162.757812 115.398438 163.378906 C 113.71875 166.527344 111.871094 169.582031 110.085938 172.675781 C 109.148438 174.296875 108.222656 175.925781 107.136719 177.835938 C 104.667969 173.566406 102.335938 169.691406 100.183594 165.722656 C 99.414062 164.304688 98.554688 163.765625 96.921875 163.773438 C 81.761719 163.835938 66.601562 163.808594 51.433594 163.808594 C 50.84375 163.808594 50.246094 163.808594 49.597656 163.808594 L 49.597656 211.035156 C 50.1875 211.074219 50.726562 211.113281 51.253906 211.113281 C 57.4375 211.136719 63.617188 211.214844 69.796875 211.113281 C 71.441406 211.085938 72.300781 211.652344 73.054688 213.046875 C 74.875 216.410156 76.847656 219.6875 78.742188 223.007812 C 79.386719 224.128906 79.988281 225.273438 80.800781 226.757812 L 49.597656 226.757812 L 49.597656 242.523438 C 68.332031 242.507812 87.0625 242.515625 105.800781 242.507812 C 106.449219 242.507812 107.101562 242.4375 107.945312 242.390625 C 107.601562 241.691406 107.425781 241.285156 107.207031 240.90625 C 98.695312 226.089844 90.199219 211.265625 81.625 196.484375 C 81.277344 195.886719 80.25 195.378906 79.519531 195.355469 C 75.378906 195.234375 71.234375 195.28125 67.097656 195.25 C 66.425781 195.246094 65.757812 195.15625 65.019531 195.101562 L 65.019531 179.835938 C 65.363281 179.753906 65.605469 179.648438 65.847656 179.648438 C 73.554688 179.632812 81.265625 179.597656 88.972656 179.667969 C 89.546875 179.671875 90.328125 180.296875 90.652344 180.851562 C 93.78125 186.179688 96.824219 191.566406 99.910156 196.921875 C 108.433594 211.730469 116.953125 226.539062 125.539062 241.3125 C 125.871094 241.886719 126.796875 242.4375 127.453125 242.445312 C 132.675781 242.535156 137.902344 242.5 143.125 242.488281 C 143.40625 242.488281 143.691406 242.339844 144.097656 242.230469 C 143.640625 241.386719 143.269531 240.648438 142.859375 239.9375 Z M 142.859375 239.9375 " fill-opacity="1" fill-rule="nonzero"/></g><g fill="#0f223c" fill-opacity="1"><g transform="translate(207.280874, 185.68487)"><g><path d="M 10.265625 -9.875 L 10.265625 0 L 2.9375 0 L 2.9375 -27.125 L 11.8125 -27.125 C 19.1875 -27.125 22.875 -24.453125 22.875 -19.109375 C 22.875 -15.972656 21.34375 -13.539062 18.28125 -11.8125 L 26.1875 0 L 17.875 0 L 12.109375 -9.875 Z M 10.265625 -15.375 L 11.640625 -15.375 C 14.191406 -15.375 15.46875 -16.507812 15.46875 -18.78125 C 15.46875 -20.644531 14.210938 -21.578125 11.703125 -21.578125 L 10.265625 -21.578125 Z M 10.265625 -15.375 "/></g></g></g><g fill="#0f223c" fill-opacity="1"><g transform="translate(236.944384, 185.68487)"><g><path d="M 19.03125 0 L 2.9375 0 L 2.9375 -27.125 L 19.03125 -27.125 L 19.03125 -21.25 L 10.265625 -21.25 L 10.265625 -16.984375 L 18.390625 -16.984375 L 18.390625 -11.09375 L 10.265625 -11.09375 L 10.265625 -5.96875 L 19.03125 -5.96875 Z M 19.03125 0 "/></g></g></g><g fill="#0f223c" fill-opacity="1"><g transform="translate(147.236466, 219.699977)"><g><path d="M 13.71875 -5.328125 C 13.71875 -3.585938 13.09375 -2.21875 11.84375 -1.21875 C 10.601562 -0.226562 8.875 0.265625 6.65625 0.265625 C 4.613281 0.265625 2.804688 -0.117188 1.234375 -0.890625 L 1.234375 -4.671875 C 2.523438 -4.085938 3.617188 -3.675781 4.515625 -3.4375 C 5.410156 -3.207031 6.226562 -3.09375 6.96875 -3.09375 C 7.863281 -3.09375 8.546875 -3.257812 9.015625 -3.59375 C 9.492188 -3.9375 9.734375 -4.445312 9.734375 -5.125 C 9.734375 -5.5 9.628906 -5.832031 9.421875 -6.125 C 9.210938 -6.414062 8.90625 -6.695312 8.5 -6.96875 C 8.09375 -7.238281 7.265625 -7.671875 6.015625 -8.265625 C 4.847656 -8.816406 3.96875 -9.34375 3.375 -9.84375 C 2.789062 -10.351562 2.320312 -10.945312 1.96875 -11.625 C 1.625 -12.300781 1.453125 -13.085938 1.453125 -13.984375 C 1.453125 -15.679688 2.023438 -17.015625 3.171875 -17.984375 C 4.328125 -18.953125 5.914062 -19.4375 7.9375 -19.4375 C 8.9375 -19.4375 9.890625 -19.316406 10.796875 -19.078125 C 11.703125 -18.847656 12.644531 -18.519531 13.625 -18.09375 L 12.328125 -14.921875 C 11.296875 -15.347656 10.445312 -15.644531 9.78125 -15.8125 C 9.113281 -15.976562 8.457031 -16.0625 7.8125 -16.0625 C 7.039062 -16.0625 6.445312 -15.878906 6.03125 -15.515625 C 5.625 -15.160156 5.421875 -14.691406 5.421875 -14.109375 C 5.421875 -13.753906 5.503906 -13.441406 5.671875 -13.171875 C 5.835938 -12.910156 6.101562 -12.65625 6.46875 -12.40625 C 6.832031 -12.15625 7.691406 -11.707031 9.046875 -11.0625 C 10.835938 -10.207031 12.0625 -9.347656 12.71875 -8.484375 C 13.382812 -7.628906 13.71875 -6.578125 13.71875 -5.328125 Z M 13.71875 -5.328125 "/></g></g></g><g fill="#0f223c" fill-opacity="1"><g transform="translate(176.005383, 219.699977)"><g><path d="M 18.015625 -19.15625 L 18.015625 -6.765625 C 18.015625 -5.347656 17.695312 -4.101562 17.0625 -3.03125 C 16.425781 -1.96875 15.507812 -1.148438 14.3125 -0.578125 C 13.113281 -0.015625 11.695312 0.265625 10.0625 0.265625 C 7.601562 0.265625 5.691406 -0.363281 4.328125 -1.625 C 2.960938 -2.894531 2.28125 -4.625 2.28125 -6.8125 L 2.28125 -19.15625 L 6.328125 -19.15625 L 6.328125 -7.4375 C 6.328125 -5.957031 6.625 -4.867188 7.21875 -4.171875 C 7.8125 -3.484375 8.796875 -3.140625 10.171875 -3.140625 C 11.492188 -3.140625 12.453125 -3.488281 13.046875 -4.1875 C 13.648438 -4.882812 13.953125 -5.972656 13.953125 -7.453125 L 13.953125 -19.15625 Z M 18.015625 -19.15625 "/></g></g></g><g fill="#0f223c" fill-opacity="1"><g transform="translate(210.277763, 219.699977)"><g><path d="M 6.46875 -10.140625 L 7.8125 -10.140625 C 9.0625 -10.140625 9.992188 -10.382812 10.609375 -10.875 C 11.234375 -11.375 11.546875 -12.097656 11.546875 -13.046875 C 11.546875 -13.992188 11.285156 -14.691406 10.765625 -15.140625 C 10.242188 -15.597656 9.429688 -15.828125 8.328125 -15.828125 L 6.46875 -15.828125 Z M 15.65625 -13.1875 C 15.65625 -11.125 15.007812 -9.546875 13.71875 -8.453125 C 12.425781 -7.359375 10.59375 -6.8125 8.21875 -6.8125 L 6.46875 -6.8125 L 6.46875 0 L 2.40625 0 L 2.40625 -19.15625 L 8.53125 -19.15625 C 10.851562 -19.15625 12.617188 -18.65625 13.828125 -17.65625 C 15.046875 -16.65625 15.65625 -15.164062 15.65625 -13.1875 Z M 15.65625 -13.1875 "/></g></g></g><g fill="#0f223c" fill-opacity="1"><g transform="translate(241.117031, 219.699977)"><g><path d="M 6.46875 -10.140625 L 7.8125 -10.140625 C 9.0625 -10.140625 9.992188 -10.382812 10.609375 -10.875 C 11.234375 -11.375 11.546875 -12.097656 11.546875 -13.046875 C 11.546875 -13.992188 11.285156 -14.691406 10.765625 -15.140625 C 10.242188 -15.597656 9.429688 -15.828125 8.328125 -15.828125 L 6.46875 -15.828125 Z M 15.65625 -13.1875 C 15.65625 -11.125 15.007812 -9.546875 13.71875 -8.453125 C 12.425781 -7.359375 10.59375 -6.8125 8.21875 -6.8125 L 6.46875 -6.8125 L 6.46875 0 L 2.40625 0 L 2.40625 -19.15625 L 8.53125 -19.15625 C 10.851562 -19.15625 12.617188 -18.65625 13.828125 -17.65625 C 15.046875 -16.65625 15.65625 -15.164062 15.65625 -13.1875 Z M 15.65625 -13.1875 "/></g></g></g><g fill="#0f223c" fill-opacity="1"><g transform="translate(271.956298, 219.699977)"><g><path d="M 2.40625 0 L 2.40625 -19.15625 L 6.46875 -19.15625 L 6.46875 -3.359375 L 14.25 -3.359375 L 14.25 0 Z M 2.40625 0 "/></g></g></g><g fill="#0f223c" fill-opacity="1"><g transform="translate(301.105222, 219.699977)"><g><path d="M 8.375 -11.265625 L 12.375 -19.15625 L 16.75 -19.15625 L 10.390625 -7.453125 L 10.390625 0 L 6.359375 0 L 6.359375 -7.328125 L 0 -19.15625 L 4.40625 -19.15625 Z M 8.375 -11.265625 "/></g></g></g></svg>